<?xml version="1.0" standalone="no"?>
<!DOCTYPE svg PUBLIC "-//W3C//DTD SVG 20010904//EN"
 "http://www.w3.org/TR/2001/REC-SVG-20010904/DTD/svg10.dtd">
<svg version="1.0" xmlns="http://www.w3.org/2000/svg"
 width="325.000000pt" height="260.000000pt" viewBox="0 0 325.000000 260.000000"
 preserveAspectRatio="xMidYMid meet">

<g transform="translate(0.000000,260.000000) scale(0.100000,-0.100000)"
fill="#000000" stroke="none">
<path d="M1653 1506 c-55 -25 -77 -93 -49 -148 8 -16 13 -28 10 -28 -8 0 -118
59 -149 79 -40 28 -91 28 -105 0 -10 -18 -2 -29 63 -97 95 -99 107 -118 107
-167 0 -71 -63 -114 -168 -116 -49 0 -53 -2 -32 -10 14 -6 57 -13 95 -16 250
-18 540 174 563 373 4 41 3 44 -19 44 -13 0 -44 -14 -69 -31 -59 -40 -120 -71
-120 -62 0 5 7 17 15 27 17 23 19 63 5 100 -19 50 -92 76 -147 52z"/>
<path d="M574 801 c-82 -35 -67 -170 20 -187 38 -7 89 15 106 45 17 34 12 88
-12 116 -25 28 -79 40 -114 26z m78 -48 c39 -35 8 -109 -43 -101 -12 2 -31 15
-42 29 -16 23 -17 30 -7 50 23 43 59 52 92 22z"/>
<path d="M791 796 c-98 -54 -39 -204 71 -182 45 9 68 33 68 73 l0 33 -50 0
c-38 0 -50 -4 -50 -15 0 -10 10 -15 30 -15 38 0 41 -27 4 -36 -55 -14 -100 37
-75 85 14 26 58 38 82 23 21 -13 52 -5 46 12 -10 32 -85 45 -126 22z"/>
<path d="M1014 801 c-82 -35 -67 -170 20 -187 38 -7 89 15 106 45 17 34 12 88
-12 116 -25 28 -79 40 -114 26z m78 -48 c39 -35 8 -109 -43 -101 -12 2 -31 15
-42 29 -16 23 -17 30 -7 50 23 43 59 52 92 22z"/>
<path d="M1660 795 c-11 -14 -8 -21 20 -50 l34 -35 -32 -33 c-29 -30 -31 -35
-17 -47 13 -11 21 -9 48 18 l33 32 31 -32 c27 -27 34 -30 48 -18 14 12 13 17
-17 47 l-32 33 34 35 c30 31 32 37 19 50 -13 14 -19 11 -49 -20 l-34 -35 -36
35 c-33 32 -38 34 -50 20z"/>
<path d="M360 705 l0 -95 70 0 c63 0 70 2 70 20 0 17 -7 20 -50 20 l-50 0 0
75 c0 68 -2 75 -20 75 -19 0 -20 -7 -20 -95z"/>
<path d="M1250 780 c0 -16 7 -20 35 -20 l35 0 0 -75 c0 -68 2 -75 20 -75 18 0
20 7 20 75 l0 75 35 0 c28 0 35 4 35 20 0 19 -7 20 -90 20 -83 0 -90 -1 -90
-20z"/>
<path d="M1470 705 l0 -95 70 0 c63 0 70 2 70 20 0 17 -7 20 -50 20 -43 0 -50
3 -50 19 0 16 8 20 42 23 31 2 44 8 46 21 3 14 -4 17 -42 17 -34 0 -46 4 -46
15 0 11 12 15 50 15 43 0 50 3 50 20 0 18 -7 20 -70 20 l-70 0 0 -95z"/>
<path d="M1870 780 c0 -16 7 -20 35 -20 l35 0 0 -75 c0 -68 2 -75 20 -75 18 0
20 7 20 75 l0 75 35 0 c28 0 35 4 35 20 0 19 -7 20 -90 20 -83 0 -90 -1 -90
-20z"/>
<path d="M2160 710 c0 -83 1 -90 20 -90 16 0 20 7 20 35 0 35 0 35 45 35 45 0
45 0 45 -35 0 -28 4 -35 20 -35 19 0 20 7 20 90 0 83 -1 90 -20 90 -16 0 -20
-7 -20 -35 0 -35 0 -35 -45 -35 -45 0 -45 0 -45 35 0 28 -4 35 -20 35 -19 0
-20 -7 -20 -90z"/>
<path d="M2380 705 l0 -95 70 0 c63 0 70 2 70 20 0 17 -7 20 -50 20 -43 0 -50
3 -50 19 0 16 8 20 42 23 31 2 44 8 46 21 3 14 -4 17 -42 17 -34 0 -46 4 -46
15 0 11 12 15 50 15 43 0 50 3 50 20 0 18 -7 20 -70 20 l-70 0 0 -95z"/>
<path d="M2570 705 c0 -88 1 -95 20 -95 15 0 20 7 20 25 0 18 5 25 19 25 10 0
26 -11 35 -25 11 -16 26 -25 42 -25 26 0 26 0 9 27 -17 25 -17 28 0 55 19 32
15 67 -11 92 -10 11 -34 16 -75 16 l-59 0 0 -95z m105 25 c0 -21 -5 -26 -32
-28 -31 -3 -33 -1 -33 28 0 29 2 31 33 28 27 -2 32 -7 32 -28z"/>
<path d="M2770 705 l0 -95 70 0 c63 0 70 2 70 20 0 17 -7 20 -50 20 -43 0 -50
3 -50 19 0 16 8 20 42 23 31 2 44 8 46 21 3 14 -4 17 -42 17 -34 0 -46 4 -46
15 0 11 12 15 50 15 43 0 50 3 50 20 0 18 -7 20 -70 20 l-70 0 0 -95z"/>
</g>
</svg>
