<svg width="325" height="260" xmlns="http://www.w3.org/2000/svg" preserveAspectRatio="xMidYMid meet">
 <metadata>Created by potrace 1.15, written by Peter Selinger 2001-2017</metadata>

 <g>
  <title>background</title>
  <rect x="-1" y="-1" width="327" height="262" id="canvas_background" fill="none"/>
 </g>
 <g>
  <title>Layer 1</title>
  <g transform="translate(0, 260) scale(0.1, -0.1)" fill="#000000" id="svg_1">
   <path d="m1653,1506c-55,-25 -77,-93 -49,-148c8,-16 13,-28 10,-28c-8,0 -118,59 -149,79c-40,28 -91,28 -105,0c-10,-18 -2,-29 63,-97c95,-99 107,-118 107,-167c0,-71 -63,-114 -168,-116c-49,0 -53,-2 -32,-10c14,-6 57,-13 95,-16c250,-18 540,174 563,373c4,41 3,44 -19,44c-13,0 -44,-14 -69,-31c-59,-40 -120,-71 -120,-62c0,5 7,17 15,27c17,23 19,63 5,100c-19,50 -92,76 -147,52z" id="svg_2"/>
  </g>
  <ellipse opacity="0.25" ry="65.5" rx="70" id="svg_3" cy="130" cx="165.000012" stroke-width="1.5" stroke="#000" fill="#fff"/>
 </g>
</svg>